inDegrees=yes
name=ik_Shooting_orientations_forward
DataType=double
version=3
OpenSimVersion=4.3-2021-08-27-4bc7ad9
endheader
time	pelvis_tilt	pelvis_list	pelvis_rotation	pelvis_tx	pelvis_ty	pelvis_tz	hip_flexion_r	hip_adduction_r	hip_rotation_r	knee_angle_r	knee_angle_r_beta	ankle_angle_r	subtalar_angle_r	mtp_angle_r	hip_flexion_l	hip_adduction_l	hip_rotation_l	knee_angle_l	knee_angle_l_beta	ankle_angle_l	subtalar_angle_l	mtp_angle_l	lumbar_extension	lumbar_bending	lumbar_rotation	arm_flex_r	arm_add_r	arm_rot_r	elbow_flex_r	pro_sup_r	wrist_flex_r	wrist_dev_r	arm_flex_l	arm_add_l	arm_rot_l	elbow_flex_l	pro_sup_l	wrist_flex_l	wrist_dev_l
12.5	-3.567387157148553	0.228386417380106	145.9230921194538	0	0.9399999999999999	0	43.48781037503616	-10.04826568233969	0	58.91773218887524	1.028308414504119	-5.005426579777448	0	0	43.48781037503616	-10.04826568233969	0	58.91773218887524	1.028308414504119	-5.005426579777448	0	0	-2.634489099754526	-0.5557518568414559	-0.6255692052523136	0	-11.15626308084789	0	75.67693387759327	45.17018874423317	0	0	13.53526477684706	-36.59546070987761	-24.16739862236432	75.67693387759327	45.17018874423317	0	0
12.51	-3.594652646988606	0.2903627739820855	145.9204172550074	0	0.9399999999999999	0	43.48830906457457	-10.0482100958852	0	58.91801229327213	1.028313303248094	-5.005418428014837	0	0	43.48830906457457	-10.0482100958852	0	58.91801229327213	1.028313303248094	-5.005418428014837	0	0	-2.682708716068941	-0.5163373235967776	-0.6342738684305017	0	-11.15691253749533	0	75.67671076938159	45.17003369133977	0	0	13.24566203722243	-36.41857152122316	-24.6370391606643	75.67671076938159	45.17003369133977	0	0
12.52	-3.597940659300992	0.2950356832867252	145.906590854724	0	0.9399999999999999	0	43.48884188815626	-10.04815078953311	0	58.91831168136907	1.028318528556126	-5.005409735292458	0	0	43.48884188815626	-10.04815078953311	0	58.91831168136907	1.028318528556126	-5.005409735292458	0	0	-2.681223342188776	-0.5097976681496856	-0.6341861520086404	0	-11.15760671736744	0	75.6764723898381	45.16986819950703	0	0	12.96661735476782	-36.37163495366013	-24.90950750234551	75.6764723898381	45.16986819950703	0	0
12.53	-3.602446097739682	0.2939369977722679	145.8911100674216	0	0.9399999999999999	0	43.48903480593169	-10.04812946537136	0	58.91842063155119	1.028320430095525	-5.00540661443088	0	0	43.48903480593169	-10.04812946537136	0	58.91842063155119	1.028320430095525	-5.00540661443088	0	0	-2.69900604332843	-0.5143855718863978	-0.6162678446866612	0	-11.15785898964429	0	75.67638608017985	45.16980861750466	0	0	12.96016646064259	-36.2908070811219	-25.06600020740974	75.67638608017985	45.16980861750466	0	0
12.54	-3.598077258100682	0.3327562678705292	145.8927592566319	0	0.9399999999999999	0	43.48942405887453	-10.04808621422911	0	58.91863952375608	1.028324250485207	-5.005400278340984	0	0	43.48942405887453	-10.04808621422911	0	58.91863952375608	1.028324250485207	-5.005400278340984	0	0	-2.715661087774716	-0.4761970603368613	-0.6247246785436373	0	-11.15836647892673	0	75.67621193244619	45.16968787861523	0	0	12.75975104687102	-36.02212602509027	-25.37933114870182	75.67621193244619	45.16968787861523	0	0
12.55	-3.626741903207961	0.361221614982175	145.8791403846292	0	0.9399999999999999	0	43.48983404984899	-10.04804065084167	0	58.91886992622813	1.028328271766949	-5.005393604406607	0	0	43.48983404984899	-10.04804065084167	0	58.91886992622813	1.028328271766949	-5.005393604406607	0	0	-2.766205809421147	-0.4685806951869474	-0.6068602894087975	0	-11.15890080312722	0	75.67602850677333	45.16956067817651	0	0	12.39252115481299	-35.8827599321208	-26.31124224606177	75.67602850677333	45.16956067817651	0	0
12.56	-3.64286460625261	0.3552992551402958	145.8813877081538	0	0.9399999999999999	0	43.48998943509943	-10.0480235459709	0	58.91895786457783	1.028329806580691	-5.005391104015097	0	0	43.48998943509943	-10.0480235459709	0	58.91895786457783	1.028329806580691	-5.005391104015097	0	0	-2.771495579605555	-0.48133441299472	-0.6420557477480334	0	-11.15910434483011	0	75.67595898868773	45.16951284124873	0	0	12.42844116419875	-35.77261341501804	-26.37857417591009	75.67595898868773	45.16951284124873	0	0
12.57	-3.662574102132219	0.3714309303029649	145.9019936166563	0	0.9399999999999999	0	43.4902513392508	-10.04799452573135	0	58.91910530665404	1.028332379930376	-5.005386856512279	0	0	43.4902513392508	-10.04799452573135	0	58.91910530665404	1.028332379930376	-5.005386856512279	0	0	-2.789633119800094	-0.4691880118269656	-0.7028750284311595	0	-11.15944614104127	0	75.6758418153367	45.16943177448282	0	0	12.4475843274101	-35.59003287533697	-26.02299682593316	75.6758418153367	45.16943177448282	0	0
